<svg id="visual" viewBox="0 0 1920 900" width="1920" height="900" xmlns="http://www.w3.org/2000/svg" xmlns:xlink="http://www.w3.org/1999/xlink" version="1.1"><rect x="0" y="0" width="1920" height="900" fill="#e5e5e5"></rect><g fill="none" stroke="#001122" stroke-width="1"><path d="M0 -174.6L39.2 -54L166.1 -54L63.4 20.6L102.6 141.3L0 66.7L-102.6 141.3L-63.4 20.6L-166.1 -54L-39.2 -54Z" transform="translate(1887 701)"></path><path d="M0 -44.4L10 -13.7L42.2 -13.7L16.1 5.2L26.1 35.9L0 16.9L-26.1 35.9L-16.1 5.2L-42.2 -13.7L-10 -13.7Z" transform="translate(671 516)"></path><path d="M0 -99.1L22.2 -30.6L94.3 -30.6L36 11.7L58.3 80.2L0 37.9L-58.3 80.2L-36 11.7L-94.3 -30.6L-22.2 -30.6Z" transform="translate(138 372)"></path></g></svg>